<?xml version="1.0" standalone="no"?>
<!DOCTYPE svg PUBLIC "-//W3C//DTD SVG 20010904//EN"
 "http://www.w3.org/TR/2001/REC-SVG-20010904/DTD/svg10.dtd">
<svg version="1.0" xmlns="http://www.w3.org/2000/svg"
 width="700.000000pt" height="700.000000pt" viewBox="0 0 700.000000 700.000000"
 preserveAspectRatio="xMidYMid meet">
<metadata>
Created by potrace 1.14, written by Peter Selinger 2001-2017
</metadata>
<g transform="translate(0.000000,700.000000) scale(0.100000,-0.100000)"
fill="#000000" stroke="none">
<path d="M3570 6940 c-14 -4 -61 -8 -106 -9 -44 -1 -104 -8 -134 -17 -36 -10
-55 -12 -59 -5 -5 7 -22 6 -54 -4 -30 -9 -82 -13 -142 -12 -90 2 -93 2 -78
-15 9 -10 12 -18 7 -19 -5 0 -36 -3 -69 -5 -79 -5 -115 -10 -145 -17 -14 -4
-74 -18 -135 -33 -230 -54 -387 -104 -578 -184 -69 -29 -87 -40 -73 -46 15 -6
9 -11 -30 -30 -59 -28 -71 -29 -53 -7 11 13 8 13 -16 -3 -16 -10 -34 -24 -40
-30 -15 -16 -58 -44 -69 -44 -5 0 -1 10 10 23 10 12 1 6 -21 -14 -57 -51 -101
-79 -141 -90 -21 -6 -32 -14 -28 -21 4 -7 3 -8 -4 -4 -6 4 -36 -10 -67 -30
-58 -39 -68 -49 -35 -39 13 4 8 -5 -16 -29 -20 -20 -38 -36 -41 -36 -11 0
-139 -95 -202 -151 -76 -65 -219 -204 -241 -234 -26 -35 -115 -140 -124 -146
-5 -4 -6 -12 -2 -18 8 -13 -23 -63 -35 -55 -14 8 -41 -15 -115 -101 -40 -47
-86 -115 -109 -162 -22 -44 -47 -83 -55 -85 -8 -3 -22 -18 -30 -34 -8 -16 -50
-94 -94 -174 -122 -224 -173 -344 -157 -364 7 -8 -2 -30 -27 -66 -22 -33 -37
-68 -38 -90 -3 -53 -13 -112 -23 -140 -41 -106 -90 -354 -106 -540 -12 -146
-14 -188 -20 -451 -4 -179 -3 -269 4 -273 5 -4 8 -13 4 -22 -3 -9 0 -14 8 -12
11 2 15 -20 20 -97 8 -126 48 -285 67 -262 14 16 44 113 43 137 -8 203 -13
281 -20 306 -11 39 -7 494 5 549 7 36 8 38 14 15 6 -22 7 -21 11 12 4 27 2 34
-6 28 -9 -7 -9 7 -2 53 6 34 13 64 17 67 4 3 7 13 7 23 0 15 -3 15 -24 -5 -22
-21 -24 -21 -17 -3 4 11 11 25 16 32 6 7 6 18 2 24 -5 8 -3 9 6 4 10 -6 12 -1
7 21 -7 34 44 257 69 306 9 18 18 56 20 85 3 31 13 66 25 85 l21 33 -4 -32
c-6 -46 5 -31 18 25 33 133 56 207 68 221 18 19 40 74 27 67 -5 -4 0 13 11 36
11 24 25 45 29 46 5 2 7 8 3 13 -3 5 0 9 5 9 6 0 11 12 12 28 0 15 3 21 6 15
2 -7 9 -13 14 -13 6 0 5 8 -1 20 -6 12 -7 20 -1 20 5 0 15 17 22 38 7 20 20
51 29 68 10 16 25 45 34 63 10 18 20 31 22 28 3 -3 -6 -23 -20 -46 -33 -52
-33 -61 0 -22 16 20 27 46 29 70 1 21 5 44 9 50 4 6 9 21 11 33 5 25 44 85 88
136 43 49 87 109 87 119 1 10 60 89 60 80 0 -4 -11 -25 -25 -47 -14 -22 -25
-42 -25 -45 0 -3 -16 -28 -36 -56 -20 -28 -31 -48 -25 -44 11 6 69 82 114 147
12 19 51 60 87 93 36 33 74 70 85 84 17 22 18 24 2 18 -21 -8 -18 0 27 58 33
43 45 55 121 115 49 40 73 51 59 28 -9 -13 180 129 216 163 75 73 336 251 385
263 14 4 25 11 25 16 0 5 7 6 17 3 10 -4 14 -2 10 4 -8 12 50 36 64 27 5 -3
36 13 69 34 55 37 146 76 166 71 5 -1 16 1 24 4 59 24 200 67 221 67 14 0 80
16 148 35 68 19 140 37 160 41 20 4 43 12 51 19 8 7 65 22 125 35 61 12 116
27 124 34 12 9 13 8 7 -3 -7 -10 -2 -12 20 -7 16 4 52 8 79 11 28 3 74 8 104
11 42 5 52 4 46 -6 -6 -11 16 -12 116 -5 213 13 249 12 246 -5 -1 -12 7 -14
39 -12 25 2 63 -6 95 -18 30 -12 55 -21 57 -20 4 4 194 -11 232 -17 29 -5 31
-7 15 -13 -12 -5 0 -6 28 -5 27 2 68 -4 95 -14 26 -10 92 -30 147 -46 55 -15
114 -39 131 -51 36 -28 64 -33 44 -9 -10 12 -9 15 6 14 35 -1 109 -34 109 -49
0 -9 26 -22 75 -35 41 -12 92 -30 114 -41 37 -18 49 -36 27 -41 -7 -1 -8 0 -1
4 5 2 8 9 4 14 -8 14 -22 10 -20 -6 2 -17 215 -124 233 -118 7 3 24 -8 37 -24
18 -21 41 -33 80 -42 42 -9 69 -24 115 -64 135 -116 256 -209 263 -201 3 2 19
-12 37 -31 35 -39 31 -48 -7 -12 l-24 22 12 -25 c6 -14 25 -35 43 -47 45 -31
107 -88 107 -98 0 -4 -9 0 -20 10 -38 35 -30 8 15 -50 25 -32 45 -63 45 -68 0
-6 3 -8 6 -5 3 3 -4 25 -16 48 -12 23 -20 43 -18 45 2 2 28 -19 58 -47 30 -27
46 -46 35 -42 -17 6 -17 4 3 -10 12 -10 20 -21 17 -26 -3 -4 9 -20 26 -34 16
-14 28 -30 24 -36 -3 -5 12 -22 33 -37 49 -35 71 -64 75 -100 2 -15 8 -37 15
-48 11 -19 11 -19 12 -1 0 19 0 19 21 0 12 -10 29 -35 39 -54 10 -19 48 -75
84 -124 36 -50 66 -98 66 -108 0 -10 7 -21 15 -24 8 -4 15 -12 15 -19 0 -7 11
-20 24 -28 26 -18 69 -101 81 -157 4 -19 18 -57 31 -85 13 -27 19 -51 14 -53
-5 -2 10 -38 32 -80 23 -42 50 -93 60 -112 10 -19 18 -47 18 -62 0 -15 5 -28
10 -28 6 0 10 -7 10 -16 0 -9 8 -23 18 -31 10 -8 11 -11 2 -7 -13 7 -13 5 -1
-9 9 -12 10 -17 2 -17 -7 0 -9 -5 -5 -11 11 -19 5 -123 -9 -146 -8 -13 8 -63
22 -63 13 0 21 -39 9 -46 -12 -8 -3 -106 12 -134 6 -11 8 -20 6 -20 -3 0 -1
-11 4 -26 13 -33 20 -75 22 -129 1 -24 7 -43 13 -42 5 1 9 -3 8 -9 -7 -38 -9
-84 -4 -90 7 -7 1 -195 -7 -208 -3 -5 -1 -6 5 -3 11 7 12 -261 1 -279 -7 -10
-12 -48 -23 -159 -12 -119 -18 -150 -36 -184 -10 -20 -19 -43 -19 -53 0 -9 -4
-20 -10 -23 -6 -3 -10 -18 -10 -32 0 -14 -13 -64 -28 -112 -16 -47 -28 -102
-28 -121 1 -22 -7 -48 -21 -69 -13 -19 -23 -38 -23 -43 0 -6 -6 -24 -14 -41
-8 -18 -22 -56 -31 -84 -9 -29 -22 -56 -28 -60 -15 -10 -67 -118 -67 -139 0
-9 -16 -40 -36 -70 -36 -54 -48 -67 -38 -39 4 8 2 15 -3 15 -16 0 -36 -47 -30
-69 3 -12 0 -24 -5 -28 -7 -4 -8 -1 -3 7 5 9 4 11 -4 6 -6 -4 -9 -12 -5 -17 3
-5 -9 -33 -25 -62 -35 -58 -117 -153 -107 -122 8 23 5 20 -46 -45 -20 -25 -43
-62 -51 -83 -9 -20 -37 -63 -62 -94 -26 -31 -56 -76 -67 -100 -21 -45 -42 -68
-32 -36 4 16 4 16 -8 -1 -48 -69 -96 -121 -133 -144 -67 -42 -81 -52 -70 -51
6 1 19 1 30 0 18 -2 18 -4 -7 -24 -15 -12 -48 -38 -75 -57 -26 -19 -52 -40
-58 -46 -19 -20 -199 -150 -280 -201 -97 -61 -186 -110 -324 -179 -73 -36 -99
-53 -85 -56 14 -4 7 -10 -29 -26 -55 -25 -72 -27 -61 -9 5 6 -3 4 -16 -6 -14
-9 -34 -24 -46 -32 -11 -8 -34 -16 -50 -17 -16 -1 -40 -9 -54 -18 -33 -22 -80
-37 -107 -35 -13 1 -23 -2 -23 -6 0 -5 -6 -6 -12 -4 -16 6 -130 -29 -122 -37
3 -4 -9 -14 -27 -24 -33 -17 -360 -76 -489 -89 -61 -5 -80 -8 -140 -20 -14 -3
-58 -7 -99 -10 -41 -2 -79 -9 -84 -14 -16 -16 -56 -13 -73 4 -9 8 -30 15 -47
16 -36 0 -77 5 -125 14 -64 12 -222 12 -222 1 0 -6 -7 -3 -15 8 -8 10 -29 20
-47 22 -123 13 -230 37 -394 88 -139 43 -161 48 -169 36 -3 -5 -30 7 -62 28
-31 20 -70 38 -87 39 -17 0 -47 5 -66 11 -36 9 -324 155 -392 198 -21 13 -40
24 -44 24 -6 0 -79 46 -179 113 -155 104 -337 261 -399 344 -28 37 -66 63 -92
63 -6 0 -29 26 -52 58 -22 31 -77 95 -123 142 -46 47 -78 78 -71 68 9 -11 9
-17 2 -20 -8 -2 -6 -21 4 -62 9 -32 13 -62 11 -67 -3 -4 3 -14 13 -21 10 -7
42 -47 71 -88 51 -73 135 -160 153 -160 5 0 7 -4 4 -8 -3 -5 14 -24 37 -43 23
-19 73 -61 112 -94 38 -33 95 -81 125 -105 30 -25 57 -47 60 -50 9 -10 134
-105 160 -122 14 -9 35 -25 47 -37 21 -20 42 -13 28 9 -3 6 -1 10 4 10 6 0 11
-7 11 -16 0 -8 4 -13 9 -9 5 3 12 -4 16 -15 3 -11 12 -21 18 -22 35 -4 27 -1
107 -47 19 -12 58 -32 85 -45 28 -14 72 -40 99 -60 27 -19 53 -33 57 -30 4 2
20 -1 36 -7 15 -7 35 -13 44 -14 24 -2 72 -42 57 -47 -13 -5 87 -38 121 -41
11 -1 21 -4 21 -7 0 -3 14 -7 32 -8 17 -2 38 -8 45 -14 7 -6 13 -7 13 -3 0 5
9 0 20 -10 13 -12 27 -15 47 -11 20 5 24 4 13 -3 -11 -7 -6 -10 20 -10 49 1
101 -12 94 -22 -3 -5 6 -10 20 -10 34 -2 39 -3 53 -12 6 -4 14 -3 18 3 4 6 12
7 18 3 6 -4 18 -8 27 -9 121 -13 183 -23 190 -31 6 -7 -86 4 -103 12 -6 4 -3
-1 8 -10 21 -17 76 -17 140 0 37 10 126 8 191 -4 27 -6 98 -8 157 -6 60 1 107
1 105 0 -7 -7 -96 -18 -145 -19 -29 -1 -53 -4 -53 -8 0 -8 25 -12 44 -9 30 6
247 6 290 0 60 -7 134 0 115 12 -20 12 -9 17 46 24 28 4 53 9 57 11 3 2 52 6
108 9 73 4 99 2 94 -6 -4 -7 0 -9 12 -5 11 3 39 8 64 10 25 3 63 8 84 11 55 9
385 121 478 161 42 19 86 34 98 34 12 0 18 4 15 10 -3 6 1 7 9 4 9 -3 16 -2
16 4 0 14 67 35 81 26 7 -4 9 -3 6 3 -4 6 0 14 9 17 24 9 31 7 14 -4 -9 -6
-10 -10 -3 -10 6 0 25 11 40 24 34 28 161 96 181 96 8 0 41 16 73 35 33 19 63
35 66 35 3 0 21 11 39 25 18 14 37 25 43 25 16 0 81 38 141 83 89 66 195 158
193 167 -1 4 19 28 45 52 73 70 132 136 132 147 0 6 4 10 9 8 10 -2 141 137
141 150 0 11 33 43 44 43 4 0 4 -6 1 -12 -9 -16 60 59 85 92 10 14 18 28 19
32 2 10 111 180 124 193 6 7 8 2 4 -12 -8 -34 -2 -28 31 30 16 28 44 65 62 80
18 16 43 54 57 85 14 32 35 67 46 80 11 12 15 22 9 22 -7 0 -1 22 15 55 17 34
30 50 34 43 5 -7 7 1 7 17 0 18 22 76 54 140 31 61 63 137 73 171 9 34 28 74
41 89 27 32 34 66 9 45 -12 -10 -15 -9 -15 6 0 39 22 100 42 115 15 12 22 30
24 70 5 84 25 173 36 157 6 -9 8 -3 4 17 l-6 30 15 -25 14 -25 1 25 c1 14 3
32 5 40 14 65 18 96 22 175 3 50 4 113 3 140 -3 66 -2 150 5 321 4 103 2 152
-7 180 -8 23 -10 56 -7 79 l6 40 2 -35 c1 -29 3 -32 12 -18 9 17 4 69 -20 180
-10 45 -7 47 13 11 15 -27 15 -24 14 57 0 53 -4 78 -9 65 -4 -11 -8 -30 -8
-42 -2 -43 -18 -23 -26 30 -13 89 -14 128 -4 121 6 -3 3 11 -6 32 -9 21 -13
44 -10 52 3 8 -6 37 -20 64 -25 47 -36 123 -21 146 3 6 3 18 -1 28 -6 16 -7
16 -14 -2 -6 -18 -7 -17 -17 6 -5 14 -20 57 -32 95 -12 39 -39 108 -61 154
-43 93 -44 95 -27 85 7 -4 2 6 -10 23 -12 17 -22 34 -22 37 0 4 -15 22 -33 40
-23 23 -43 61 -66 126 -18 51 -43 109 -57 129 -13 20 -20 37 -14 39 11 4 -41
75 -104 142 -23 25 -50 62 -60 83 -9 20 -21 35 -27 32 -5 -4 -9 -2 -9 2 0 5
-7 18 -16 29 -8 10 -13 12 -9 4 4 -8 -1 -6 -9 4 -19 24 -21 40 -3 30 6 -4 4 1
-5 12 -20 23 -49 88 -52 118 -4 37 -26 68 -45 63 -19 -5 -44 25 -46 57 -1 11
-22 38 -47 60 -108 99 -203 181 -210 182 -4 1 -12 2 -18 3 -5 0 -10 6 -10 11
0 6 -11 23 -25 38 -14 15 -25 23 -25 18 0 -5 -29 18 -64 52 -35 34 -76 66 -91
72 -16 6 -23 14 -19 22 4 6 3 8 -4 4 -6 -3 -13 -2 -16 3 -4 5 -43 31 -89 57
-45 26 -84 50 -87 53 -19 24 -125 89 -218 134 -60 29 -126 68 -146 85 -20 18
-43 32 -52 32 -8 0 -17 7 -20 15 -4 8 -14 15 -24 15 -10 0 -56 18 -101 40 -54
26 -97 40 -122 40 -22 0 -54 9 -72 20 -37 23 -186 70 -221 70 -13 0 -27 6 -31
13 -9 14 -101 40 -148 41 -16 1 -61 8 -100 16 -61 13 -66 16 -40 21 l30 6 -29
12 c-19 8 -39 8 -62 2 -23 -6 -34 -6 -38 2 -2 7 -5 8 -5 1 -1 -12 -143 0 -187
16 -16 6 -30 11 -31 11 -2 -1 -13 -1 -25 0 -22 1 -22 1 2 9 25 8 24 8 -5 9
-16 1 -52 3 -80 6 -27 2 -61 0 -75 -5z m90 -14 c0 -3 -4 -8 -10 -11 -5 -3 -10
-1 -10 4 0 6 5 11 10 11 6 0 10 -2 10 -4z m-1600 -496 c-8 -5 -19 -10 -25 -10
-5 0 -3 5 5 10 8 5 20 10 25 10 6 0 3 -5 -5 -10z m-554 -296 c-22 -19 -45 -34
-52 -34 -7 0 -14 -4 -16 -8 -5 -13 -68 -54 -68 -45 0 29 154 143 170 126 3 -3
-13 -20 -34 -39z m4610 -4582 c-17 -16 -18 -16 -5 5 7 12 15 20 18 17 3 -2 -3
-12 -13 -22z m-1746 -1333 c0 -11 -29 -20 -115 -35 -96 -17 -102 -17 -88 -3
25 25 203 58 203 38z"/>
<path d="M3520 6491 c-8 -5 -35 -12 -60 -16 -68 -10 -64 -19 5 -10 95 12 125
13 130 5 14 -22 -205 -69 -236 -50 -11 7 -10 13 6 31 11 12 16 20 10 17 -5 -3
-35 -9 -65 -12 -37 -4 -48 -3 -35 3 33 15 -3 12 -63 -5 -42 -12 -74 -15 -131
-10 l-76 7 22 -23 c11 -13 24 -33 28 -45 6 -21 3 -23 -27 -25 -46 -2 -76 -6
-128 -17 -25 -5 -47 -8 -49 -6 -2 2 6 16 18 31 23 29 21 45 -4 24 -8 -7 -25
-10 -38 -7 -14 4 -38 -3 -66 -18 -24 -14 -61 -28 -83 -31 -27 -5 -51 -18 -76
-44 -31 -32 -56 -44 -157 -75 -66 -20 -158 -52 -204 -71 -47 -19 -95 -34 -107
-34 -16 0 -24 -7 -26 -22 -2 -16 -28 -37 -93 -75 -49 -28 -95 -56 -102 -62 -7
-6 -14 -11 -17 -11 -13 0 -297 -201 -326 -230 -4 -5 -83 -70 -133 -110 -11 -8
-29 -29 -40 -46 -12 -17 -55 -68 -96 -113 -40 -44 -107 -125 -147 -178 -41
-54 -83 -107 -93 -118 -31 -35 -172 -285 -237 -420 -92 -193 -183 -461 -218
-645 -3 -14 -9 -50 -15 -80 -11 -57 -17 -100 -26 -185 -3 -27 -8 -68 -10 -90
-6 -53 -7 -433 -1 -465 2 -14 7 -56 11 -93 3 -37 8 -78 11 -90 2 -12 7 -47 10
-79 6 -52 3 -60 -34 -125 -99 -170 -134 -267 -168 -463 -13 -79 -13 -175 0
-202 9 -17 10 -28 4 -30 -6 -2 12 -34 38 -70 54 -74 123 -118 185 -118 56 0
64 10 50 66 -12 48 -16 281 -5 354 8 63 37 180 44 180 3 0 42 -73 85 -162 227
-470 325 -660 368 -715 32 -40 48 -71 50 -94 2 -19 15 -50 30 -69 15 -19 44
-60 64 -90 21 -30 58 -69 81 -87 24 -18 40 -33 36 -33 -4 0 11 -13 33 -29 23
-16 47 -38 54 -48 23 -30 264 -228 367 -301 32 -23 32 -23 32 -2 0 19 2 20 15
6 8 -8 15 -17 15 -21 0 -12 29 -35 44 -35 9 0 33 -10 54 -23 20 -13 63 -36 95
-52 32 -17 68 -39 80 -51 26 -25 57 -37 57 -23 0 6 11 4 28 -4 15 -8 40 -20
55 -26 16 -6 31 -20 34 -30 5 -18 61 -40 118 -46 11 -2 70 -16 130 -33 118
-32 189 -49 245 -57 19 -3 44 -8 54 -12 18 -5 73 -7 416 -17 74 -2 148 -9 164
-15 33 -13 82 -6 143 21 24 10 47 16 53 13 5 -3 32 2 60 11 50 16 51 16 71 -5
13 -14 28 -19 42 -16 12 2 38 7 57 9 19 3 55 12 80 21 25 9 65 18 90 19 25 1
45 6 45 12 0 5 -2 8 -5 8 -3 -1 -30 -5 -60 -8 l-55 -6 48 24 c42 21 63 24 156
24 91 0 118 4 181 27 41 14 80 27 86 28 6 2 23 10 37 20 30 19 41 22 32 7 -7
-12 21 -2 52 18 12 7 27 11 33 7 5 -3 10 -2 10 3 0 5 11 15 25 22 14 7 23 15
21 17 -2 3 -30 -10 -62 -27 -32 -17 -62 -28 -68 -26 -7 3 -6 5 2 5 6 1 12 6
12 11 0 6 -18 1 -40 -10 -22 -11 -40 -19 -40 -17 0 5 88 61 127 81 40 20 65
21 39 1 -25 -19 -9 -19 24 0 33 19 46 19 30 0 -19 -23 -2 -18 57 15 29 17 60
30 68 30 8 0 15 4 15 9 0 5 7 12 16 15 14 5 15 4 5 -8 -7 -9 11 -4 43 12 43
21 55 32 53 47 -2 23 58 60 113 70 46 8 104 36 91 45 -6 3 17 20 52 37 34 18
71 41 81 52 17 19 17 19 -5 14 -15 -4 -20 -3 -15 5 4 7 14 12 21 12 8 0 26 17
39 39 14 21 36 41 50 45 21 5 78 66 61 66 -10 0 26 48 41 54 12 5 12 2 3 -17
l-12 -22 24 22 c13 12 27 21 30 20 4 -1 23 18 44 43 21 25 46 51 56 58 10 7
16 19 13 26 -9 22 18 62 59 90 20 14 37 24 37 22 0 -2 -14 -20 -30 -41 -17
-21 -28 -41 -25 -44 6 -6 84 79 85 92 1 19 64 136 71 132 3 -3 13 9 22 26 13
27 16 29 24 14 8 -14 13 -11 28 22 10 21 36 56 59 78 28 28 50 63 70 115 16
41 62 143 102 225 40 83 78 171 84 197 7 25 23 57 36 69 28 27 31 41 7 37 -20
-3 -21 0 -9 60 5 30 14 46 28 51 17 6 21 18 24 57 4 84 15 153 24 159 4 3 6
-5 3 -17 l-4 -23 13 23 c8 12 18 19 22 15 4 -4 6 -3 5 2 -2 6 0 30 4 55 16
105 18 137 9 160 -7 18 -5 31 5 47 12 18 12 29 0 75 -7 29 -12 69 -10 88 17
180 18 274 3 315 -15 38 -23 144 -11 125 6 -8 11 -25 11 -37 0 -12 4 -24 9
-27 11 -7 20 38 11 56 -5 7 -10 32 -14 56 -3 23 -10 51 -15 61 -6 10 -9 31 -7
47 1 16 -2 47 -7 69 -12 59 -17 155 -7 155 12 0 1 28 -22 61 -19 25 -25 77
-15 132 3 15 1 27 -4 27 -5 0 -9 -8 -9 -17 0 -33 -20 2 -36 62 -8 33 -33 96
-55 141 -22 44 -39 85 -37 90 4 14 -29 67 -62 98 -21 20 -37 52 -51 100 -11
39 -31 88 -45 108 -26 41 -30 53 -13 42 24 -14 -11 34 -73 100 -35 38 -70 81
-78 96 -8 15 -20 25 -26 23 -6 -2 -28 10 -49 27 -21 16 -42 30 -47 30 -5 0 -6
5 -3 10 4 7 12 7 25 0 29 -16 45 -13 30 5 -7 8 -9 15 -4 15 4 0 -1 6 -11 14
-11 8 -16 19 -12 30 4 9 3 16 -2 16 -5 0 -28 29 -51 65 -34 52 -57 74 -121
115 -44 27 -82 50 -85 50 -3 0 -21 11 -40 25 -114 83 -105 74 -86 93 15 16 18
17 32 2 36 -37 121 -101 130 -98 6 2 -14 22 -44 44 -31 22 -66 56 -78 74 -13
18 -32 34 -44 35 -25 2 -156 94 -149 105 3 4 -7 11 -21 14 -28 7 -86 50 -145
106 -45 44 -189 125 -275 155 -56 20 -63 25 -47 34 14 8 -3 10 -73 11 -101 0
-146 14 -142 45 2 11 14 25 27 31 l24 12 -38 16 c-49 21 -58 20 -50 -4 9 -29
-3 -25 -65 19 -47 34 -57 37 -75 27 -30 -19 -50 -14 -48 11 2 19 -2 21 -45 18
-41 -3 -50 0 -58 18 -10 23 -78 50 -111 44 -12 -2 -20 -1 -18 3 5 9 -54 4
-128 -11 -26 -5 -66 -9 -89 -9 -33 0 -38 2 -29 14 14 17 5 44 -17 48 -10 2
-43 -9 -75 -24 -45 -22 -67 -27 -105 -24 -26 3 -58 5 -72 6 -26 2 99 49 133
49 18 1 24 20 7 22 -5 1 -14 3 -20 4 -5 1 -20 4 -32 5 -22 2 -22 2 2 10 14 4
18 9 10 9 -8 1 -44 4 -80 6 -36 3 -72 1 -80 -4z m2224 -1197 c9 -3 16 -15 16
-27 0 -19 -1 -19 -20 3 -27 31 -26 36 4 24z m-5162 -2506 c-16 -35 -37 -79
-46 -98 -9 -19 -13 -24 -10 -11 3 13 7 30 8 38 4 27 71 160 74 147 2 -7 -10
-41 -26 -76z"/>
<path d="M3920 6450 c-7 -4 -20 -6 -29 -3 -14 4 -14 3 0 -6 22 -14 73 -18 77
-6 5 13 -32 25 -48 15z"/>
<path d="M4855 6410 c3 -5 18 -10 32 -10 32 0 28 5 -10 14 -19 4 -26 3 -22 -4z"/>
<path d="M4630 6201 c0 -27 11 -32 46 -22 l29 8 -29 12 c-16 6 -33 14 -37 17
-5 3 -9 -4 -9 -15z"/>
<path d="M2018 6062 c-31 -26 -55 -48 -53 -50 8 -8 95 49 90 58 -3 5 5 16 17
24 12 9 18 16 13 15 -6 0 -36 -21 -67 -47z"/>
<path d="M1894 6005 c-15 -14 -23 -25 -17 -25 5 0 20 11 33 25 13 14 21 25 17
25 -3 0 -18 -11 -33 -25z"/>
<path d="M1239 5874 c-13 -15 -21 -44 -13 -44 2 0 10 14 19 30 17 33 15 39 -6
14z"/>
<path d="M1725 5870 c-3 -6 1 -7 9 -4 18 7 21 14 7 14 -6 0 -13 -4 -16 -10z"/>
<path d="M5270 5826 c0 -2 7 -7 16 -10 8 -3 12 -2 9 4 -6 10 -25 14 -25 6z"/>
<path d="M785 5329 c-4 -6 -5 -12 -2 -15 2 -3 7 2 10 11 7 17 1 20 -8 4z"/>
<path d="M703 5205 c-3 -9 -3 -18 -1 -21 3 -3 8 4 11 16 6 23 -1 27 -10 5z"/>
<path d="M490 4727 c-7 -18 -15 -35 -18 -40 -2 -4 3 -4 12 -1 8 3 18 19 21 36
9 41 2 44 -15 5z"/>
<path d="M310 4248 c0 -19 2 -20 10 -8 13 19 13 30 0 30 -5 0 -10 -10 -10 -22z"/>
<path d="M6441 3955 c-1 -5 -4 -21 -7 -34 -2 -14 -8 -29 -12 -35 -5 -6 -3 -27
4 -46 17 -48 26 -21 21 61 -2 35 -4 60 -6 54z"/>
<path d="M257 3911 c-3 -12 -2 -23 3 -26 11 -7 20 19 10 34 -5 9 -9 7 -13 -8z"/>
<path d="M6393 2789 c-1 -10 2 -19 8 -19 11 0 12 27 1 34 -4 2 -9 -4 -9 -15z"/>
<path d="M6860 2715 c-8 -45 -8 -47 2 -37 5 5 8 18 5 28 -3 11 -6 15 -7 9z"/>
<path d="M160 2653 c0 -4 5 -15 10 -23 8 -13 10 -13 10 2 0 9 -4 20 -10 23 -5
3 -10 3 -10 -2z"/>
<path d="M340 2600 c0 -5 5 -10 11 -10 5 0 7 5 4 10 -3 6 -8 10 -11 10 -2 0
-4 -4 -4 -10z"/>
<path d="M6806 2493 c-6 -14 -5 -15 5 -6 7 7 10 15 7 18 -3 3 -9 -2 -12 -12z"/>
<path d="M6140 2139 c0 -5 5 -7 10 -4 6 3 10 8 10 11 0 2 -4 4 -10 4 -5 0 -10
-5 -10 -11z"/>
<path d="M830 1546 c0 -2 7 -9 15 -16 12 -10 15 -10 15 4 0 9 -7 16 -15 16 -8
0 -15 -2 -15 -4z"/>
<path d="M655 1520 c3 -5 11 -10 16 -10 6 0 7 5 4 10 -3 6 -11 10 -16 10 -6 0
-7 -4 -4 -10z"/>
<path d="M1530 671 c0 -5 11 -16 25 -25 16 -11 23 -12 20 -3 -7 16 -45 40 -45
28z"/>
<path d="M1635 565 c35 -29 58 -39 53 -24 -2 7 -20 19 -39 26 -32 13 -33 12
-14 -2z"/>
<path d="M4694 454 c-18 -14 -18 -15 4 -4 12 6 22 13 22 15 0 8 -5 6 -26 -11z"/>
<path d="M1976 390 c13 -14 66 -21 58 -8 -3 5 -11 7 -17 5 -7 -2 -21 0 -32 6
-15 7 -17 7 -9 -3z"/>
<path d="M2191 307 c2 -1 13 -9 24 -17 19 -14 19 -14 6 3 -7 9 -18 17 -24 17
-6 0 -8 -1 -6 -3z"/>
<path d="M2450 177 c8 -8 33 -17 55 -21 l40 -6 -31 14 c-17 7 -41 17 -55 21
-21 6 -22 5 -9 -8z"/>
<path d="M3933 90 c-13 -5 -23 -11 -23 -13 0 -8 50 5 56 14 6 11 -4 11 -33 -1z"/>
</g>
</svg>
